<svg class="main-svg" xmlns="http://www.w3.org/2000/svg" xmlns:xlink="http://www.w3.org/1999/xlink" width="700" height="500" style="" viewBox="0 0 700 500"><rect x="0" y="0" width="700" height="500" style="fill: rgb(255, 255, 255); fill-opacity: 1;"/><defs id="defs-fe6a8f"><g class="clips"><clipPath id="clipfe6a8fxyplot" class="plotclip"><rect width="532" height="440"/></clipPath><clipPath class="axesclip" id="clipfe6a8fx"><rect x="30" y="0" width="532" height="500"/></clipPath><clipPath class="axesclip" id="clipfe6a8fy"><rect x="0" y="30" width="700" height="440"/></clipPath><clipPath class="axesclip" id="clipfe6a8fxy"><rect x="30" y="30" width="532" height="440"/></clipPath></g><g class="gradients"/><g class="patterns"/></defs><g class="bglayer"><rect class="bg" x="30" y="30" width="532" height="440" style="fill: rgb(229, 236, 246); fill-opacity: 1; stroke-width: 0;"/></g><g class="layer-below"><g class="imagelayer"/><g class="shapelayer"/></g><g class="cartesianlayer"><g class="subplot xy"><g class="layer-subplot"><g class="shapelayer"/><g class="imagelayer"/></g><g class="minor-gridlayer"><g class="x"/><g class="y"/></g><g class="gridlayer"><g class="x"/><g class="y"/></g><g class="zerolinelayer"/><g class="layer-between"><g class="shapelayer"/><g class="imagelayer"/></g><path class="xlines-below"/><path class="ylines-below"/><g class="overlines-below"/><g class="xaxislayer-below"/><g class="yaxislayer-below"/><g class="overaxes-below"/><g class="overplot"><g class="xy" transform="translate(30,30)" clip-path="url(#clipfe6a8fxyplot)"><g class="scatterlayer mlayer"><g class="trace scatter trace1635cc" style="stroke-miterlimit: 2; opacity: 1;"><g class="fills"/><g class="errorbars"/><g class="lines"/><g class="points"/><g class="text"/></g><g class="trace scatter trace45ab34" style="stroke-miterlimit: 2; opacity: 1;"><g class="fills"/><g class="errorbars"/><g class="lines"/><g class="points"><path class="point" transform="translate(131.73,175.25)" d="M12.5,0A12.5,12.5 0 1,1 0,-12.5A12.5,12.5 0 0,1 12.5,0Z" style="opacity: 1; stroke-width: 1px; fill: rgb(236, 111, 109); fill-opacity: 1; stroke: rgb(159, 75, 73); stroke-opacity: 1;"/></g><g class="text"><g class="textpoint" transform="translate(0,3)"><text x="131.73" y="175.25" text-anchor="middle" style="font-family: 'Open Sans', verdana, arial, sans-serif; font-size: 12px; fill: rgb(34, 34, 34); fill-opacity: 1; white-space: pre;">(0, 0, 0)</text></g></g></g><g class="trace scatter trace7b6054" style="stroke-miterlimit: 2; opacity: 1;"><g class="fills"/><g class="errorbars"/><g class="lines"/><g class="points"><path class="point" transform="translate(42.22,85.74)" d="M12.5,0A12.5,12.5 0 1,1 0,-12.5A12.5,12.5 0 0,1 12.5,0Z" style="opacity: 1; stroke-width: 1px; fill: rgb(236, 111, 109); fill-opacity: 1; stroke: rgb(159, 75, 73); stroke-opacity: 1;"/></g><g class="text"><g class="textpoint" transform="translate(0,3)"><text x="42.22" y="85.74" text-anchor="middle" style="font-family: 'Open Sans', verdana, arial, sans-serif; font-size: 12px; fill: rgb(34, 34, 34); fill-opacity: 1; white-space: pre;">(0, 0, 1)</text></g></g></g><g class="trace scatter trace7ca0b0" style="stroke-miterlimit: 2; opacity: 1;"><g class="fills"/><g class="errorbars"/><g class="lines"/><g class="points"><path class="point" transform="translate(131.73,354.27)" d="M12.5,0A12.5,12.5 0 1,1 0,-12.5A12.5,12.5 0 0,1 12.5,0Z" style="opacity: 1; stroke-width: 1px; fill: rgb(236, 111, 109); fill-opacity: 1; stroke: rgb(159, 75, 73); stroke-opacity: 1;"/></g><g class="text"><g class="textpoint" transform="translate(0,3)"><text x="131.73" y="354.27" text-anchor="middle" style="font-family: 'Open Sans', verdana, arial, sans-serif; font-size: 12px; fill: rgb(34, 34, 34); fill-opacity: 1; white-space: pre;">(0, 1, 0)</text></g></g></g><g class="trace scatter trace954535" style="stroke-miterlimit: 2; opacity: 1;"><g class="fills"/><g class="errorbars"/><g class="lines"/><g class="points"><path class="point" transform="translate(42.22,264.76)" d="M12.5,0A12.5,12.5 0 1,1 0,-12.5A12.5,12.5 0 0,1 12.5,0Z" style="opacity: 1; stroke-width: 1px; fill: rgb(236, 111, 109); fill-opacity: 1; stroke: rgb(159, 75, 73); stroke-opacity: 1;"/></g><g class="text"><g class="textpoint" transform="translate(0,3)"><text x="42.22" y="264.76" text-anchor="middle" style="font-family: 'Open Sans', verdana, arial, sans-serif; font-size: 12px; fill: rgb(34, 34, 34); fill-opacity: 1; white-space: pre;">(0, 1, 1)</text></g></g></g><g class="trace scatter trace5577dd" style="stroke-miterlimit: 2; opacity: 1;"><g class="fills"/><g class="errorbars"/><g class="lines"/><g class="points"><path class="point" transform="translate(310.76,175.25)" d="M12.5,0A12.5,12.5 0 1,1 0,-12.5A12.5,12.5 0 0,1 12.5,0Z" style="opacity: 1; stroke-width: 1px; fill: rgb(236, 111, 109); fill-opacity: 1; stroke: rgb(159, 75, 73); stroke-opacity: 1;"/></g><g class="text"><g class="textpoint" transform="translate(0,3)"><text x="310.76" y="175.25" text-anchor="middle" style="font-family: 'Open Sans', verdana, arial, sans-serif; font-size: 12px; fill: rgb(34, 34, 34); fill-opacity: 1; white-space: pre;">(1, 0, 0)</text></g></g></g><g class="trace scatter trace61e3f8" style="stroke-miterlimit: 2; opacity: 1;"><g class="fills"/><g class="errorbars"/><g class="lines"/><g class="points"><path class="point" transform="translate(221.24,85.74)" d="M12.5,0A12.5,12.5 0 1,1 0,-12.5A12.5,12.5 0 0,1 12.5,0Z" style="opacity: 1; stroke-width: 1px; fill: rgb(236, 111, 109); fill-opacity: 1; stroke: rgb(159, 75, 73); stroke-opacity: 1;"/></g><g class="text"><g class="textpoint" transform="translate(0,3)"><text x="221.24" y="85.74" text-anchor="middle" style="font-family: 'Open Sans', verdana, arial, sans-serif; font-size: 12px; fill: rgb(34, 34, 34); fill-opacity: 1; white-space: pre;">(1, 0, 1)</text></g></g></g><g class="trace scatter trace69c6fb" style="stroke-miterlimit: 2; opacity: 1;"><g class="fills"/><g class="errorbars"/><g class="lines"/><g class="points"><path class="point" transform="translate(310.76,354.27)" d="M12.5,0A12.5,12.5 0 1,1 0,-12.5A12.5,12.5 0 0,1 12.5,0Z" style="opacity: 1; stroke-width: 1px; fill: rgb(236, 111, 109); fill-opacity: 1; stroke: rgb(159, 75, 73); stroke-opacity: 1;"/></g><g class="text"><g class="textpoint" transform="translate(0,3)"><text x="310.76" y="354.27" text-anchor="middle" style="font-family: 'Open Sans', verdana, arial, sans-serif; font-size: 12px; fill: rgb(34, 34, 34); fill-opacity: 1; white-space: pre;">(1, 1, 0)</text></g></g></g><g class="trace scatter tracead4a79" style="stroke-miterlimit: 2; opacity: 1;"><g class="fills"/><g class="errorbars"/><g class="lines"/><g class="points"><path class="point" transform="translate(221.24,264.76)" d="M12.5,0A12.5,12.5 0 1,1 0,-12.5A12.5,12.5 0 0,1 12.5,0Z" style="opacity: 1; stroke-width: 1px; fill: rgb(236, 111, 109); fill-opacity: 1; stroke: rgb(159, 75, 73); stroke-opacity: 1;"/></g><g class="text"><g class="textpoint" transform="translate(0,3)"><text x="221.24" y="264.76" text-anchor="middle" style="font-family: 'Open Sans', verdana, arial, sans-serif; font-size: 12px; fill: rgb(34, 34, 34); fill-opacity: 1; white-space: pre;">(1, 1, 1)</text></g></g></g><g class="trace scatter trace51df60" style="stroke-miterlimit: 2; opacity: 1;"><g class="fills"/><g class="errorbars"/><g class="lines"/><g class="points"><path class="point" transform="translate(489.78,175.25)" d="M12.5,0A12.5,12.5 0 1,1 0,-12.5A12.5,12.5 0 0,1 12.5,0Z" style="opacity: 1; stroke-width: 1px; fill: rgb(236, 111, 109); fill-opacity: 1; stroke: rgb(159, 75, 73); stroke-opacity: 1;"/></g><g class="text"><g class="textpoint" transform="translate(0,3)"><text x="489.78" y="175.25" text-anchor="middle" style="font-family: 'Open Sans', verdana, arial, sans-serif; font-size: 12px; fill: rgb(34, 34, 34); fill-opacity: 1; white-space: pre;">(2, 0, 0)</text></g></g></g><g class="trace scatter trace44da45" style="stroke-miterlimit: 2; opacity: 1;"><g class="fills"/><g class="errorbars"/><g class="lines"/><g class="points"><path class="point" transform="translate(400.27,85.74)" d="M12.5,0A12.5,12.5 0 1,1 0,-12.5A12.5,12.5 0 0,1 12.5,0Z" style="opacity: 1; stroke-width: 1px; fill: rgb(236, 111, 109); fill-opacity: 1; stroke: rgb(159, 75, 73); stroke-opacity: 1;"/></g><g class="text"><g class="textpoint" transform="translate(0,3)"><text x="400.27" y="85.74" text-anchor="middle" style="font-family: 'Open Sans', verdana, arial, sans-serif; font-size: 12px; fill: rgb(34, 34, 34); fill-opacity: 1; white-space: pre;">(2, 0, 1)</text></g></g></g><g class="trace scatter traceb8865a" style="stroke-miterlimit: 2; opacity: 1;"><g class="fills"/><g class="errorbars"/><g class="lines"/><g class="points"><path class="point" transform="translate(489.78,354.27)" d="M12.5,0A12.5,12.5 0 1,1 0,-12.5A12.5,12.5 0 0,1 12.5,0Z" style="opacity: 1; stroke-width: 1px; fill: rgb(236, 111, 109); fill-opacity: 1; stroke: rgb(159, 75, 73); stroke-opacity: 1;"/></g><g class="text"><g class="textpoint" transform="translate(0,3)"><text x="489.78" y="354.27" text-anchor="middle" style="font-family: 'Open Sans', verdana, arial, sans-serif; font-size: 12px; fill: rgb(34, 34, 34); fill-opacity: 1; white-space: pre;">(2, 1, 0)</text></g></g></g><g class="trace scatter trace567c16" style="stroke-miterlimit: 2; opacity: 1;"><g class="fills"/><g class="errorbars"/><g class="lines"/><g class="points"><path class="point" transform="translate(400.27,264.76)" d="M12.5,0A12.5,12.5 0 1,1 0,-12.5A12.5,12.5 0 0,1 12.5,0Z" style="opacity: 1; stroke-width: 1px; fill: rgb(236, 111, 109); fill-opacity: 1; stroke: rgb(159, 75, 73); stroke-opacity: 1;"/></g><g class="text"><g class="textpoint" transform="translate(0,3)"><text x="400.27" y="264.76" text-anchor="middle" style="font-family: 'Open Sans', verdana, arial, sans-serif; font-size: 12px; fill: rgb(34, 34, 34); fill-opacity: 1; white-space: pre;">(2, 1, 1)</text></g></g></g><g class="trace scatter trace8f27f4" style="stroke-miterlimit: 2; opacity: 1;"><g class="fills"/><g class="errorbars"/><g class="lines"/><g class="points"/><g class="text"/></g><g class="trace scatter traced4a3e8" style="stroke-miterlimit: 2; opacity: 1;"><g class="fills"><g><path class="js-fill" d="M131.73,175.25L132.46,163.91L132.86,161.1L135.36,150.03L136.2,147.31L140.42,136.77L141.69,134.23L147.52,124.49L149.17,122.17L156.46,113.48L158.46,111.45L167.04,104.02L169.32,102.33L178.97,96.35L181.5,95.04L191.97,90.66L194.67,89.77L205.7,87.09L208.51,86.65L219.82,85.75L222.67,85.75L233.98,86.65L236.79,87.09L247.82,89.77L250.52,90.66L260.99,95.04L263.52,96.35L273.17,102.33L275.45,104.02L284.03,111.45L286.03,113.48L293.32,122.17L294.97,124.49L300.8,134.23L302.07,136.77L306.29,147.31L307.13,150.03L309.63,161.1L310.03,163.91L310.76,175.25L131.73,175.25Z" style="fill: rgb(73, 187, 194); fill-opacity: 0.8; stroke-width: 0;"/></g></g><g class="errorbars"/><g class="lines"><path class="js-line" d="M131.73,175.25L132.46,163.91L132.86,161.1L135.36,150.03L136.2,147.31L140.42,136.77L141.69,134.23L147.52,124.49L149.17,122.17L156.46,113.48L158.46,111.45L167.04,104.02L169.32,102.33L178.97,96.35L181.5,95.04L191.97,90.66L194.67,89.77L205.7,87.09L208.51,86.65L219.82,85.75L222.67,85.75L233.98,86.65L236.79,87.09L247.82,89.77L250.52,90.66L260.99,95.04L263.52,96.35L273.17,102.33L275.45,104.02L284.03,111.45L286.03,113.48L293.32,122.17L294.97,124.49L300.8,134.23L302.07,136.77L306.29,147.31L307.13,150.03L309.63,161.1L310.03,163.91L310.76,175.25L131.73,175.25" style="vector-effect: none; fill: none; stroke: rgb(127, 102, 104); stroke-opacity: 1; stroke-width: 2px; opacity: 1;"/></g><g class="points"/><g class="text"/></g><g class="trace scatter trace0b9bf0" style="stroke-miterlimit: 2; opacity: 1;"><g class="fills"/><g class="errorbars"/><g class="lines"><path class="js-line" d="M126.36,169.87L305.38,169.87" style="vector-effect: none; fill: none; stroke: rgb(242, 160, 76); stroke-opacity: 1; stroke-width: 15px; opacity: 1;"/></g><g class="points"/><g class="text"/></g><g class="trace scatter trace9953ee" style="stroke-miterlimit: 2; opacity: 1;"><g class="fills"/><g class="errorbars"/><g class="lines"/><g class="points"><path class="point" transform="translate(126.36,169.87)" d="M15.63,15.63H-15.63V-15.63H15.63Z" style="opacity: 1; stroke-width: 1px; fill: rgb(242, 160, 76); fill-opacity: 1; stroke: rgb(127, 102, 104); stroke-opacity: 1;"/></g><g class="text"><g class="textpoint" transform="translate(0,3)"><text x="126.36" y="169.87" text-anchor="middle" style="font-family: 'Open Sans', verdana, arial, sans-serif; font-size: 12px; fill: rgb(42, 63, 95); fill-opacity: 1; white-space: pre;">X</text></g></g></g><g class="trace scatter trace7b8be5" style="stroke-miterlimit: 2; opacity: 1;"><g class="fills"/><g class="errorbars"/><g class="lines"/><g class="points"><path class="point" transform="translate(305.38,169.87)" d="M15.63,15.63H-15.63V-15.63H15.63Z" style="opacity: 1; stroke-width: 1px; fill: rgb(242, 160, 76); fill-opacity: 1; stroke: rgb(127, 102, 104); stroke-opacity: 1;"/></g><g class="text"><g class="textpoint" transform="translate(0,3)"><text x="305.38" y="169.87" text-anchor="middle" style="font-family: 'Open Sans', verdana, arial, sans-serif; font-size: 12px; fill: rgb(42, 63, 95); fill-opacity: 1; white-space: pre;">X</text></g></g></g><g class="trace scatter trace21a9e6" style="stroke-miterlimit: 2; opacity: 1;"><g class="fills"/><g class="errorbars"/><g class="lines"><path class="js-line" d="M137.11,180.62" style="vector-effect: none; fill: none; stroke: rgb(73, 187, 194); stroke-opacity: 1; stroke-width: 15px; opacity: 1;"/></g><g class="points"/><g class="text"/></g><g class="trace scatter traceb48c25" style="stroke-miterlimit: 2; opacity: 1;"><g class="fills"/><g class="errorbars"/><g class="lines"/><g class="points"><path class="point" transform="translate(137.11,180.62)" d="M15.63,15.63H-15.63V-15.63H15.63Z" style="opacity: 1; stroke-width: 1px; fill: rgb(73, 187, 194); fill-opacity: 1; stroke: rgb(127, 102, 104); stroke-opacity: 1;"/></g><g class="text"><g class="textpoint" transform="translate(0,3)"><text x="137.11" y="180.62" text-anchor="middle" style="font-family: 'Open Sans', verdana, arial, sans-serif; font-size: 12px; fill: rgb(42, 63, 95); fill-opacity: 1; white-space: pre;">Z</text></g></g></g></g></g></g><path class="xlines-above crisp" d="M0,0" style="fill: none;"/><path class="ylines-above crisp" d="M0,0" style="fill: none;"/><g class="overlines-above"/><g class="xaxislayer-above"/><g class="yaxislayer-above"/><g class="overaxes-above"/></g></g><g class="polarlayer"/><g class="smithlayer"/><g class="ternarylayer"/><g class="geolayer"/><g class="funnelarealayer"/><g class="pielayer"/><g class="iciclelayer"/><g class="treemaplayer"/><g class="sunburstlayer"/><g class="glimages"/><defs id="topdefs-fe6a8f"><g class="clips"/><clipPath id="legendfe6a8f"><rect width="115" height="58" x="0" y="0"/></clipPath></defs><g class="layer-above"><g class="imagelayer"/><g class="shapelayer"/></g><g class="infolayer"><g class="legend" pointer-events="all" transform="translate(572.64,30)"><rect class="bg" shape-rendering="crispEdges" style="stroke: rgb(68, 68, 68); stroke-opacity: 1; fill: rgb(255, 255, 255); fill-opacity: 1; stroke-width: 0px;" width="115" height="58" x="0" y="0"/><g class="scrollbox" transform="" clip-path="url(#legendfe6a8f)"><g class="groups" transform=""><g class="traces" transform="translate(0,14.5)" style="opacity: 1;"><text class="legendtext" text-anchor="start" x="40" y="4.680000000000001" style="font-family: 'Open Sans', verdana, arial, sans-serif; font-size: 12px; fill: rgb(42, 63, 95); fill-opacity: 1; white-space: pre;">Data qubits</text><g class="layers" style="opacity: 1;"><g class="legendfill"/><g class="legendlines"/><g class="legendsymbols"><g class="legendpoints"><path class="scatterpts" transform="translate(20,0)" d="M8,0A8,8 0 1,1 0,-8A8,8 0 0,1 8,0Z" style="opacity: 1; stroke-width: 1px; fill: rgb(236, 111, 109); fill-opacity: 1; stroke: rgb(159, 75, 73); stroke-opacity: 1;"/></g></g></g><rect class="legendtoggle" x="0" y="-9.5" width="109.4375" height="19" style="fill: rgb(0, 0, 0); fill-opacity: 0;"/></g></g><g class="groups" transform="translate(0,10)"><g class="traces" transform="translate(0,33.5)" style="opacity: 1;"><text class="legendtext" text-anchor="start" x="40" y="4.680000000000001" style="font-family: 'Open Sans', verdana, arial, sans-serif; font-size: 12px; fill: rgb(42, 63, 95); fill-opacity: 1; white-space: pre;">q1</text><g class="layers" style="opacity: 1;"><g class="legendfill"/><g class="legendlines"/><g class="legendsymbols"><g class="legendpoints"><path class="scatterpts" transform="translate(20,0)" d="M8,0A8,8 0 1,1 0,-8A8,8 0 0,1 8,0Z" style="opacity: 1; stroke-width: 1px; fill: rgb(85, 85, 85); fill-opacity: 1; stroke: rgb(51, 51, 51); stroke-opacity: 1;"/></g></g></g><rect class="legendtoggle" x="0" y="-9.5" width="109.4375" height="19" style="fill: rgb(0, 0, 0); fill-opacity: 0;"/></g></g></g><rect class="scrollbar" rx="20" ry="3" width="0" height="0" style="fill: rgb(128, 139, 164); fill-opacity: 1;" x="0" y="0"/></g><g class="g-gtitle"/></g></svg>