<?xml version="1.0" encoding="UTF-8"?><svg id="Layer_1" xmlns="http://www.w3.org/2000/svg" viewBox="0 0 210.3 192"><defs><style>.cls-1{fill:#0b2340;}</style></defs><g><path class="cls-1" d="M78.79,23.7h59.67c.51,0,.96-.32,1.14-.79,.18-.48,.04-1.01-.35-1.34-8.22-7.08-18.92-11.37-30.63-11.37s-22.4,4.28-30.63,11.37c-.38,.33-.52,.87-.35,1.34,.18,.48,.63,.79,1.14,.79Z"/><path class="cls-1" d="M133.11,94.61h-48.97c-.54,0-1.01,.36-1.17,.87-.15,.52,.06,1.07,.51,1.36,7.27,4.62,15.89,7.29,25.14,7.29s17.87-2.68,25.14-7.29c.46-.29,.67-.85,.51-1.36-.15-.52-.63-.87-1.17-.87Z"/><path class="cls-1" d="M154.82,57.94c.44,0,.78-.34,.78-.78,0-4.53-.65-8.9-1.84-13.04-.15-.52-.61-.87-1.17-.87h-17.06c-.67,0-1.21-.54-1.21-1.21s.54-1.21,1.21-1.21h15.36c.4,0,.78-.21,1-.55,.23-.32,.27-.76,.11-1.13-1.92-4.62-4.56-8.86-7.77-12.59-.23-.27-.57-.42-.92-.42H73.95c-.36,0-.7,.15-.92,.42-3.21,3.73-5.85,7.97-7.77,12.59-.16,.37-.11,.8,.11,1.14s.6,.54,1.01,.54h15.34c.67,0,1.21,.54,1.21,1.21s-.54,1.21-1.21,1.21h-17.06c-.53,0-1.02,.36-1.17,.87-1.2,4.14-1.83,8.51-1.83,13.04,0,.44,.34,.78,.76,.78h19.29c.67,0,1.21,.54,1.21,1.21s-.54,1.21-1.21,1.21h-18.63c-.12,0-.24,.02-.35,.05-.35,.11-.63,.37-.77,.71-.07,.18-.1,.37-.08,.56,.41,4.41,1.45,8.63,2.99,12.59,.18,.47,.63,.77,1.13,.77h15.7c.67,0,1.21,.54,1.21,1.21s-.54,1.21-1.21,1.21h-13.46c-.3,0-.57,.1-.78,.28s-.35,.41-.41,.67c-.06,.28-.02,.57,.12,.83,2.53,4.75,5.86,9.01,9.8,12.6,.22,.2,.51,.32,.82,.32h61.66c.3,0,.59-.11,.82-.32,3.94-3.59,7.28-7.85,9.81-12.6,.19-.37,.19-.82-.03-1.2-.21-.36-.61-.58-1.04-.58h-13.5c-.66,0-1.2-.54-1.2-1.2v-.02c0-.67,.54-1.21,1.21-1.21h15.71c.49,0,.94-.31,1.12-.78,1.55-3.96,2.59-8.19,3.01-12.59,.02-.24-.03-.48-.14-.69-.09-.16-.21-.3-.36-.4-.21-.15-.46-.23-.72-.23h-35.58c-.67,0-1.21-.54-1.21-1.21s.54-1.21,1.21-1.21h36.25Zm-52.61-14.29h-4.13c-.66,0-1.21,.53-1.21,1.21v1.15c0,.68-.53,1.21-1.21,1.21h-1.15c-.68,0-1.21,.55-1.21,1.21v4.29c0,.68,.53,1.21,1.21,1.21h1.15c.68,0,1.21,.55,1.21,1.21v1.17c0,.66,.55,1.21,1.21,1.21h4.13c.66,0,1.21-.55,1.21-1.21v-1.17c0-.66,.53-1.21,1.21-1.21h7.98s.02,0,.03,0c.65,.01,1.17,.55,1.17,1.2v8.01c0,.38-.18,.73-.48,.96-.2,.15-.45,.24-.72,.24h-7.98c-.68,0-1.21-.53-1.21-1.21v-1.15c0-.68-.55-1.21-1.21-1.21h-4.13c-.66,0-1.21,.53-1.21,1.21v1.15c0,.68-.53,1.21-1.21,1.21h-1.15c-.68,0-1.21,.55-1.21,1.21v4.29c0,.68,.53,1.21,1.21,1.21h1.15c.68,0,1.21,.55,1.21,1.21v1.17c0,.66,.55,1.21,1.21,1.21h4.13c.66,0,1.21-.55,1.21-1.21v-1.17c0-.66,.53-1.21,1.21-1.21h7.98c.66,0,1.21,.55,1.21,1.21v1.17c0,.66,.53,1.21,1.21,1.21h4.11c.68,0,1.21-.55,1.21-1.21v-1.17c0-.66,.55-1.21,1.21-1.21h7.98c.68,0,1.21,.55,1.21,1.21v1.57s0,.05,0,.08c0,.06,.01,.12,.01,.18v4.36c0,.06,0,.12-.01,.18,0,.02,0,.05,0,.07v1.55c0,.68-.53,1.21-1.21,1.21h-7.98c-.66,0-1.21-.53-1.21-1.21v-1.15c0-.68-.53-1.21-1.21-1.21h-4.11c-.68,0-1.21,.53-1.21,1.21v1.15c0,.68-.55,1.21-1.21,1.21h-7.98c-.68,0-1.21-.53-1.21-1.21v-1.15c0-.68-.55-1.21-1.21-1.21h-4.13c-.66,0-1.21,.53-1.21,1.21v1.15c0,.68-.53,1.21-1.21,1.21h-7.98c-.66,0-1.21-.53-1.21-1.21v-1.55s0-.04,0-.07c0-.06-.01-.12-.01-.18v-4.36c0-.06,0-.12,.01-.18,0-.02,0-.05,0-.08v-1.57c0-.66,.55-1.21,1.21-1.21h1.17c.66,0,1.21-.53,1.21-1.21v-4.29c0-.66-.55-1.21-1.21-1.21h-1.17c-.66,0-1.21-.53-1.21-1.21v-1.55s0-.04,0-.07c0-.06-.01-.12-.01-.18v-4.36c0-.06,0-.12,.01-.18,0-.02,0-.05,0-.08v-1.57c0-.66,.55-1.21,1.21-1.21h1.17c.66,0,1.21-.53,1.21-1.21v-4.29c0-.66-.55-1.21-1.21-1.21h-1.17c-.66,0-1.21-.53-1.21-1.21v-1.55s0-.04,0-.07c0-.06-.01-.12-.01-.18v-4.36c0-.06,0-.12,.01-.18,0-.02,0-.05,0-.08v-1.57c0-.66,.55-1.21,1.21-1.21h7.98c.68,0,1.21,.55,1.21,1.21v1.17c0,.66,.55,1.21,1.21,1.21h4.13c.66,0,1.21-.55,1.21-1.21v-1.17c0-.66,.53-1.21,1.21-1.21h7.98c.66,0,1.21,.55,1.21,1.21v1.17c0,.66,.53,1.21,1.21,1.21h4.11c.68,0,1.21-.55,1.21-1.21v-1.17c0-.66,.55-1.21,1.21-1.21h7.98c.68,0,1.21,.55,1.21,1.21v1.57s0,.05,0,.08c0,.06,.01,.12,.01,.18v4.36c0,.06,0,.12-.01,.18,0,.02,0,.05,0,.07v1.55c0,.68-.53,1.21-1.21,1.21h-7.98c-.66,0-1.21-.53-1.21-1.21v-1.15c0-.68-.53-1.21-1.21-1.21h-4.11c-.68,0-1.21,.53-1.21,1.21v1.15c0,.68-.55,1.21-1.21,1.21h-7.98c-.68,0-1.21-.53-1.21-1.21v-1.15c0-.68-.55-1.21-1.21-1.21Z"/></g><g><path class="cls-1" d="M11.17,143.07v-27.25H29.62v5.37h-13v5.76h9.11v4.98h-9.11v5.76h13v5.37H11.17Z"/><path class="cls-1" d="M48.08,143.07v-13.27l-.82-.82h-8.29v14.09h-5.45v-19.46h16.08l3.93,3.93v15.53h-5.45Z"/><path class="cls-1" d="M71.51,143.07h-8.21l-3.93-3.93v-10.16h-3.89v-5.37h3.89v-6.03h5.45v6.03h4.67v5.37h-4.67v7.9l.82,.82h5.88v5.37Z"/><path class="cls-1" d="M73.07,143.07v-5.37h3.89v-8.72h-3.89v-5.37h15.41l3.93,3.93v4.63h-5.45v-2.37l-.82-.82h-3.74v8.72h5.06v5.37h-14.4Z"/><path class="cls-1" d="M98.69,143.07l-3.93-3.93v-11.6l3.93-3.93h12.15l3.93,3.93v11.6l-3.93,3.93h-12.15Zm10.63-13.27l-.82-.82h-7.47l-.82,.82v7.09l.82,.82h7.47l.82-.82v-7.09Z"/><path class="cls-1" d="M138.86,139.14l-3.93,3.93h-10.63v7.79h-5.45v-27.25h16.08l3.93,3.93v11.6Zm-5.45-2.26v-7.09l-.82-.82h-8.29v8.72h8.29l.82-.82Z"/><path class="cls-1" d="M141.4,143.07v-5.37h4.67v-8.72h-4.67v-5.37h10.12v14.09h4.67v5.37h-14.79Zm4.67-21.88v-5.37h5.45v5.37h-5.45Z"/><path class="cls-1" d="M162.65,143.07l-3.93-3.93v-11.6l3.93-3.93h14.13v5.37h-11.8l-.82,.82v7.09l.82,.82h11.8v5.37h-14.13Z"/><path class="cls-1" d="M183.05,143.07l-3.93-3.93v-4.28l3.93-3.93h10.63v-1.13l-.82-.82h-12.57v-5.37h14.91l3.93,3.93v15.53h-16.08Zm10.63-7.16h-8.29l-.82,.82v.54l.82,.82h8.29v-2.18Z"/></g><g><path class="cls-1" d="M63.18,181.8v-27.25h5.45v21.88h11.44v5.37h-16.89Z"/><path class="cls-1" d="M85.18,181.8l-3.93-3.93v-4.28l3.93-3.93h10.63v-1.13l-.82-.82h-12.57v-5.37h14.91l3.93,3.93v15.53h-16.08Zm10.63-7.16h-8.29l-.82,.82v.54l.82,.82h8.29v-2.18Z"/><path class="cls-1" d="M105.54,181.8v-27.25h5.45v7.79h10.63l3.93,3.93v11.6l-3.93,3.93h-16.08Zm14.56-13.27l-.82-.82h-8.29v8.72h8.29l.82-.82v-7.09Z"/><path class="cls-1" d="M128.86,181.8v-4.98h12.77l.82-.82v-.62l-.82-.82h-9.23l-3.93-3.93v-4.36l3.93-3.93h14.72v4.98h-12.38l-.82,.82v.62l.82,.82h9.07l4.09,3.93v4.36l-3.93,3.93h-15.1Z"/></g><text/><text/></svg>